<svg width="263" height="205" viewBox="0 0 263 205" fill="none" xmlns="http://www.w3.org/2000/svg">
<g clip-path="url(#clip0_4826_9920)">
<path d="M191.803 31.6668L189.128 28.9861L186.583 31.5372L184.03 28.9861L181.355 31.6668L183.901 34.2261L181.355 36.7772L184.03 39.458L186.583 36.9068L189.128 39.458L191.803 36.7772L189.257 34.2261L191.803 31.6668Z" fill="#E4E1FF"/>
<path d="M28.3425 128.214L25.6682 125.533L23.115 128.085L20.5699 125.533L17.8955 128.214L20.4406 130.765L17.8955 133.325L20.5699 136.005L23.115 133.454L25.6682 136.005L28.3425 133.325L25.7974 130.765L28.3425 128.214Z" fill="#E4E1FF"/>
<path d="M76.9986 13.9139L74.3242 11.2251L71.771 13.7844L69.2259 11.2251L66.5435 13.9139L69.0966 16.4651L66.5435 19.0244L69.2259 21.7051L71.771 19.1539L74.3242 21.7051L76.9986 19.0244L74.4535 16.4651L76.9986 13.9139Z" fill="#E4E1FF"/>
<path d="M245.137 147.878L242.462 145.198L239.909 147.749L237.356 145.198L234.682 147.878L237.235 150.438L234.682 152.989L237.356 155.678L239.909 153.118L242.462 155.678L245.137 152.989L242.584 150.438L245.137 147.878Z" fill="#E4E1FF"/>
<path d="M28.3424 43.3778C26.1852 43.3778 24.4399 41.6203 24.4399 39.466C24.4399 37.3117 26.1932 35.5542 28.3424 35.5542C30.4916 35.5542 32.2449 37.3117 32.2449 39.466C32.2449 41.6203 30.4916 43.3778 28.3424 43.3778ZM28.3424 37.1659C27.082 37.1659 26.0559 38.1944 26.0559 39.4579C26.0559 40.7213 27.082 41.7499 28.3424 41.7499C29.6029 41.7499 30.629 40.7213 30.629 39.4579C30.629 38.1944 29.6029 37.1659 28.3424 37.1659Z" fill="#E4E1FF"/>
<path d="M141.79 7.83162C139.632 7.83162 137.887 6.07415 137.887 3.91984C137.887 1.76552 139.641 0.00805664 141.79 0.00805664C143.939 0.00805664 145.692 1.76552 145.692 3.91984C145.692 6.07415 143.939 7.83162 141.79 7.83162ZM141.79 1.61974C140.529 1.61974 139.503 2.64831 139.503 3.91174C139.503 5.17517 140.529 6.20373 141.79 6.20373C143.05 6.20373 144.076 5.17517 144.076 3.91174C144.076 2.64831 143.05 1.61974 141.79 1.61974Z" fill="#E4E1FF"/>
<path d="M251.285 62.6695C249.136 62.6695 247.383 60.912 247.383 58.7577C247.383 56.6034 249.136 54.8459 251.285 54.8459C253.435 54.8459 255.188 56.6034 255.188 58.7577C255.188 60.912 253.435 62.6695 251.285 62.6695ZM251.285 56.4576C250.025 56.4576 248.999 57.4862 248.999 58.7496C248.999 60.0131 250.025 61.0416 251.285 61.0416C252.546 61.0416 253.572 60.0131 253.572 58.7496C253.572 57.4862 252.546 56.4576 251.285 56.4576Z" fill="#E4E1FF"/>
<path d="M201.474 127.275C199.325 127.275 197.572 125.517 197.572 123.363C197.572 121.209 199.325 119.451 201.474 119.451C203.623 119.451 205.377 121.209 205.377 123.363C205.377 125.517 203.623 127.275 201.474 127.275ZM201.474 121.063C200.214 121.063 199.188 122.091 199.188 123.355C199.188 124.618 200.214 125.647 201.474 125.647C202.735 125.647 203.761 124.618 203.761 123.355C203.761 122.091 202.735 121.063 201.474 121.063Z" fill="#E4E1FF"/>
<path d="M66.5436 176.791C64.3944 176.791 62.6411 175.034 62.6411 172.88C62.6411 170.725 64.3944 168.968 66.5436 168.968C68.6928 168.968 70.4461 170.725 70.4461 172.88C70.4461 175.034 68.6928 176.791 66.5436 176.791ZM66.5436 170.579C65.2832 170.579 64.2571 171.608 64.2571 172.871C64.2571 174.135 65.2832 175.163 66.5436 175.163C67.804 175.163 68.8302 174.135 68.8302 172.871C68.8302 171.608 67.804 170.579 66.5436 170.579Z" fill="#E4E1FF"/>
<path d="M73.7422 49.128C77.7537 49.128 81.0058 45.8682 81.0058 41.8471C81.0058 37.8259 77.7537 34.5662 73.7422 34.5662C69.7306 34.5662 66.4785 37.8259 66.4785 41.8471C66.4785 45.8682 69.7306 49.128 73.7422 49.128Z" fill="#E4E1FF"/>
<path d="M77.3542 129.316C79.3711 129.316 81.0062 127.677 81.0062 125.655C81.0062 123.633 79.3711 121.994 77.3542 121.994C75.3372 121.994 73.7021 123.633 73.7021 125.655C73.7021 127.677 75.3372 129.316 77.3542 129.316Z" fill="#E4E1FF"/>
<path d="M262.5 113.855C262.5 115.88 260.868 117.516 258.848 117.516C256.828 117.516 255.196 115.88 255.196 113.855C255.196 111.83 256.828 110.194 258.848 110.194C260.868 110.194 262.5 111.83 262.5 113.855Z" fill="#E4E1FF"/>
<path d="M7.80404 66.962C7.80404 68.9867 6.17194 70.6227 4.15202 70.6227C2.1321 70.6227 0.5 68.9867 0.5 66.962C0.5 64.9372 2.1321 63.3013 4.15202 63.3013C6.17194 63.3013 7.80404 64.9372 7.80404 66.962Z" fill="#E4E1FF"/>
<path d="M190.235 66.962C190.235 68.9867 188.603 70.6227 186.583 70.6227C184.563 70.6227 182.931 68.9867 182.931 66.962C182.931 64.9372 184.563 63.3013 186.583 63.3013C188.603 63.3013 190.235 64.9372 190.235 66.962Z" fill="#E4E1FF"/>
<path d="M178.972 174.475C182.007 174.475 184.466 172.01 184.466 168.968C184.466 165.926 182.007 163.461 178.972 163.461C175.938 163.461 173.478 165.926 173.478 168.968C173.478 172.01 175.938 174.475 178.972 174.475Z" fill="#E4E1FF"/>
<path d="M41.1733 123.671V106.606H7.8042V92.9757L46.0858 43.71H56.4843V92.8542H66.5435V106.606H56.4843V123.671H41.1733ZM23.1152 92.8542H42.8862V66.962L23.1152 92.8542Z" fill="#CCD4DC"/>
<path d="M219.532 123.671V106.606H186.163V92.9757L224.445 43.718H234.843V92.8623H244.902V106.614H234.843V123.679H219.532V123.671ZM201.474 92.8542H221.245V66.9619L201.474 92.8542Z" fill="#CCD4DC"/>
<path d="M180.839 123.8L181.14 123.531C181.596 123.126 181.628 122.436 181.214 121.991L175.047 115.413C181.401 107.612 185.387 97.8512 185.867 87.1381C187.095 60.1176 165.634 37.2473 137.934 36.049C110.225 34.8507 86.7786 55.7847 85.5502 82.8053C84.3218 109.834 105.791 132.704 133.492 133.902C144.474 134.371 154.79 131.371 163.316 125.88L169.482 132.458C169.897 132.903 170.605 132.934 171.061 132.53L171.362 132.26L217.099 181H234.5L180.839 123.8Z" fill="#F8F8F8"/>
<path d="M232.374 178.755L170.041 122.149L162.976 130.357L225.309 186.957C227.65 189.083 231.258 188.709 233.118 186.14C234.777 183.86 234.45 180.647 232.361 178.756L232.374 178.755Z" fill="#CCD4DC"/>
<path d="M155.04 124.254L163.968 133.203C164.42 133.657 165.164 133.657 165.616 133.203L175.74 123.055C176.192 122.602 176.192 121.856 175.74 121.403L166.812 112.454L155.032 124.262L155.04 124.254Z" fill="#CCD4DC"/>
<path d="M168.234 113.855L169.373 114.997L159.799 129.016L155.589 124.796L168.234 113.855Z" fill="#CCD4DC"/>
<path opacity="0.64" d="M165.932 132.895L175.45 123.363L176.096 124.011L168.663 135.633L165.932 132.895Z" fill="#CCD4DC"/>
<path d="M126.357 30.946C97.3026 30.946 73.7422 54.5544 73.7422 83.6863C73.7422 112.818 97.2945 136.426 126.357 136.426C155.42 136.426 178.972 112.818 178.972 83.6863C178.972 54.5544 155.42 30.946 126.357 30.946ZM126.357 125.525C103.306 125.525 84.6174 106.792 84.6174 83.6863C84.6174 60.58 103.306 41.8472 126.357 41.8472C149.408 41.8472 168.097 60.58 168.097 83.6863C168.097 106.792 149.408 125.525 126.357 125.525Z" fill="#CCD4DC"/>
<path opacity="0.8" d="M126.357 125.525C149.41 125.525 168.097 106.793 168.097 83.6862C168.097 60.5792 149.41 41.8472 126.357 41.8472C103.305 41.8472 84.6177 60.5792 84.6177 83.6862C84.6177 106.793 103.305 125.525 126.357 125.525Z" fill="white"/>
<path d="M98.6521 55.9232C92.6166 61.9731 88.9888 68.1526 90.5482 69.7157C92.1076 71.2788 98.2724 67.6424 104.308 61.5925C110.343 55.5426 113.971 49.3631 112.412 47.8C110.852 46.2369 104.688 49.8733 98.6521 55.9232Z" fill="white"/>
</g>
<defs>
<clipPath id="clip0_4826_9920">
<rect width="262" height="205" fill="white" transform="translate(0.5)"/>
</clipPath>
</defs>
</svg>
